<svg width="21" height="20" viewBox="0 0 21 20" fill="none" xmlns="http://www.w3.org/2000/svg">
<g clip-path="url(#clip0_681_1910)">
<path d="M16.5245 5.30121H4.47629C3.27147 5.30121 2.30762 6.26506 2.30762 7.46988V17.8313C2.30762 19.0361 3.27147 20 4.47629 20H16.5245C17.7293 20 18.6932 19.0361 18.6932 17.8313V7.46988C18.6932 6.26506 17.7293 5.30121 16.5245 5.30121ZM13.9462 11.1566C13.9462 11.5663 13.6329 11.8795 13.2233 11.8795H7.7775C7.36786 11.8795 7.05461 11.5663 7.05461 11.1566V9.3253C7.05461 8.91567 7.36786 8.60241 7.7775 8.60241C8.18713 8.60241 8.50039 8.91567 8.50039 9.3253V10.4337H12.5004V9.3253C12.5004 8.91567 12.8136 8.60241 13.2233 8.60241C13.6329 8.60241 13.9462 8.91567 13.9462 9.3253V11.1566Z" fill="white"/>
<path d="M16.524 2.6506H4.47582C4.06618 2.6506 3.75293 2.96386 3.75293 3.3735C3.75293 3.78313 4.06618 4.09639 4.47582 4.09639H16.524C16.9337 4.09639 17.2469 3.78313 17.2469 3.3735C17.2469 2.96386 16.9337 2.6506 16.524 2.6506Z" fill="white"/>
<path d="M15.3195 0H5.6809C5.27126 0 4.95801 0.313253 4.95801 0.722892C4.95801 1.13253 5.27126 1.44578 5.6809 1.44578H15.3195C15.7291 1.44578 16.0423 1.13253 16.0423 0.722892C16.0423 0.313253 15.7291 0 15.3195 0Z" fill="white"/>
</g>
<defs>
<clipPath id="clip0_681_1910">
<rect width="20" height="20" fill="white" transform="translate(0.5)"/>
</clipPath>
</defs>
</svg>
