<svg width="17" height="18" viewBox="0 0 17 18" fill="none" xmlns="http://www.w3.org/2000/svg">
<path d="M5.51407 2.20793C5.51407 1.82516 5.20377 1.51486 4.821 1.51486C4.43823 1.51486 4.12793 1.82516 4.12793 2.20793V2.901C4.12793 3.28377 4.43823 3.59407 4.821 3.59407C5.20377 3.59407 5.51407 3.28377 5.51407 2.901V2.20793Z" fill="#246788"/>
<path d="M13.1381 2.20793C13.1381 1.82516 12.8278 1.51486 12.445 1.51486C12.0623 1.51486 11.752 1.82516 11.752 2.20793V2.901C11.752 3.28377 12.0623 3.59407 12.445 3.59407C12.8278 3.59407 13.1381 3.28377 13.1381 2.901V2.20793Z" fill="#246788"/>
<path d="M1.70312 6.71286V14.6832C1.70312 15.4487 2.32377 16.0693 3.08926 16.0693H14.1784C14.9439 16.0693 15.5645 15.4487 15.5645 14.6832V6.71286H1.70312ZM5.86154 13.6436C5.86154 14.0265 5.55139 14.3366 5.16847 14.3366H4.4754C4.09248 14.3366 3.78233 14.0265 3.78233 13.6436V12.9505C3.78233 12.5676 4.09248 12.2574 4.4754 12.2574H5.16847C5.55139 12.2574 5.86154 12.5676 5.86154 12.9505V13.6436ZM5.86154 9.83167C5.86154 10.2146 5.55139 10.5247 5.16847 10.5247H4.4754C4.09248 10.5247 3.78233 10.2146 3.78233 9.83167V9.1386C3.78233 8.75568 4.09248 8.44553 4.4754 8.44553H5.16847C5.55139 8.44553 5.86154 8.75568 5.86154 9.1386V9.83167ZM9.67342 13.6436C9.67342 14.0265 9.36327 14.3366 8.98035 14.3366H8.28728C7.90436 14.3366 7.59421 14.0265 7.59421 13.6436V12.9505C7.59421 12.5676 7.90436 12.2574 8.28728 12.2574H8.98035C9.36327 12.2574 9.67342 12.5676 9.67342 12.9505V13.6436ZM9.67342 9.83167C9.67342 10.2146 9.36327 10.5247 8.98035 10.5247H8.28728C7.90436 10.5247 7.59421 10.2146 7.59421 9.83167V9.1386C7.59421 8.75568 7.90436 8.44553 8.28728 8.44553H8.98035C9.36327 8.44553 9.67342 8.75568 9.67342 9.1386V9.83167ZM13.4853 13.6436C13.4853 14.0265 13.1752 14.3366 12.7922 14.3366H12.0992C11.7162 14.3366 11.4061 14.0265 11.4061 13.6436V12.9505C11.4061 12.5676 11.7162 12.2574 12.0992 12.2574H12.7922C13.1752 12.2574 13.4853 12.5676 13.4853 12.9505V13.6436ZM13.4853 9.83167C13.4853 10.2146 13.1752 10.5247 12.7922 10.5247H12.0992C11.7162 10.5247 11.4061 10.2146 11.4061 9.83167V9.1386C11.4061 8.75568 11.7162 8.44553 12.0992 8.44553H12.7922C13.1752 8.44553 13.4853 8.75568 13.4853 9.1386V9.83167Z" fill="#246788"/>
<path d="M15.5645 6.01982V3.94061C15.5645 3.17512 14.9439 2.55447 14.1784 2.55447H13.8318V2.90101C13.8318 3.66546 13.2102 4.28715 12.4457 4.28715C11.6812 4.28715 11.0596 3.66546 11.0596 2.90101V2.55447H6.20808V2.90101C6.20808 3.66546 5.58639 4.28715 4.82194 4.28715C4.05748 4.28715 3.4358 3.66546 3.4358 2.90101V2.55447H3.08926C2.32377 2.55447 1.70312 3.17512 1.70312 3.94061V6.01982H15.5645Z" fill="#246788"/>
</svg>
