<svg width="34" height="34" viewBox="0 0 34 34" fill="none" xmlns="http://www.w3.org/2000/svg">
<rect x="0.370117" y="0.645203" width="33.0696" height="33.0696" rx="5" fill="#EE9B24"/>
<g clip-path="url(#clip0_533_1128)">
<path d="M26.0717 15.8229C25.8507 15.8229 25.6387 15.7351 25.4824 15.5788C25.3262 15.4225 25.2384 15.2105 25.2384 14.9895C25.2366 13.222 24.5337 11.5273 23.2838 10.2774C22.0339 9.02757 20.3393 8.32462 18.5717 8.32286C18.3507 8.32286 18.1387 8.23506 17.9824 8.07878C17.8262 7.9225 17.7384 7.71054 17.7384 7.48952C17.7384 7.26851 17.8262 7.05655 17.9824 6.90027C18.1387 6.74399 18.3507 6.65619 18.5717 6.65619C20.7811 6.65862 22.8993 7.53737 24.4616 9.09965C26.0239 10.6619 26.9026 12.7801 26.905 14.9895C26.905 15.2105 26.8172 15.4225 26.661 15.5788C26.5047 15.7351 26.2927 15.8229 26.0717 15.8229ZM23.5717 14.9895C23.5717 13.6634 23.0449 12.3917 22.1072 11.454C21.1696 10.5163 19.8978 9.98952 18.5717 9.98952C18.3507 9.98952 18.1387 10.0773 17.9824 10.2336C17.8262 10.3899 17.7384 10.6018 17.7384 10.8229C17.7384 11.0439 17.8262 11.2558 17.9824 11.4121C18.1387 11.5684 18.3507 11.6562 18.5717 11.6562C19.4558 11.6562 20.3036 12.0074 20.9287 12.6325C21.5538 13.2576 21.905 14.1055 21.905 14.9895C21.905 15.2105 21.9928 15.4225 22.1491 15.5788C22.3054 15.7351 22.5174 15.8229 22.7384 15.8229C22.9594 15.8229 23.1713 15.7351 23.3276 15.5788C23.4839 15.4225 23.5717 15.2105 23.5717 14.9895ZM25.3909 25.1262L26.1492 24.252C26.6319 23.7678 26.9029 23.112 26.9029 22.4283C26.9029 21.7446 26.6319 21.0888 26.1492 20.6045C26.1234 20.5787 24.1184 19.0362 24.1184 19.0362C23.6372 18.5781 22.998 18.3231 22.3336 18.324C21.6693 18.3249 21.0308 18.5818 20.5509 19.0412L18.9625 20.3795C17.666 19.8429 16.4883 19.0555 15.4969 18.0625C14.5056 17.0694 13.7202 15.8903 13.1859 14.5929L14.5192 13.0095C14.979 12.5297 15.2361 11.8911 15.2372 11.2265C15.2383 10.562 14.9832 9.92255 14.525 9.44119C14.525 9.44119 12.9809 7.43869 12.955 7.41286C12.4796 6.93431 11.8349 6.66204 11.1604 6.65487C10.4858 6.6477 9.83556 6.9062 9.35003 7.37452L8.3917 8.20786C2.73003 14.7762 14.9217 26.8737 21.7067 26.6562C22.3918 26.6602 23.0709 26.5268 23.7036 26.264C24.3364 26.0013 24.9101 25.6144 25.3909 25.1262Z" fill="white"/>
</g>
<defs>
<clipPath id="clip0_533_1128">
<rect width="20" height="20" fill="white" transform="translate(6.90479 6.65619)"/>
</clipPath>
</defs>
</svg>
