<svg width="81" height="80" viewBox="0 0 81 80" fill="none" xmlns="http://www.w3.org/2000/svg">
<path d="M54.5625 18.75H69.5955L52.2188 1.37329V16.4063C52.2188 17.6994 53.2694 18.75 54.5625 18.75Z" fill="#246788"/>
<path d="M17.0625 80H63.9375C67.8147 80 70.9688 76.8459 70.9688 72.9688V23.4375H54.5625C50.6853 23.4375 47.5312 20.2834 47.5312 16.4062V0H17.0625C13.1853 0 10.0312 3.15406 10.0312 7.03125V72.9688C10.0312 76.8459 13.1853 80 17.0625 80ZM31.125 37.6562H54.5625C55.858 37.6562 56.9062 38.7045 56.9062 40C56.9062 41.2955 55.858 42.3438 54.5625 42.3438H31.125C29.8295 42.3438 28.7812 41.2955 28.7812 40C28.7812 38.7045 29.8295 37.6562 31.125 37.6562ZM31.125 47.0312H54.5625C55.858 47.0312 56.9062 48.0795 56.9062 49.375C56.9062 50.6705 55.858 51.7188 54.5625 51.7188H31.125C29.8295 51.7188 28.7812 50.6705 28.7812 49.375C28.7812 48.0795 29.8295 47.0312 31.125 47.0312ZM31.125 56.4062H54.5625C55.858 56.4062 56.9062 57.4545 56.9062 58.75C56.9062 60.0455 55.858 61.0938 54.5625 61.0938H31.125C29.8295 61.0938 28.7812 60.0455 28.7812 58.75C28.7812 57.4545 29.8295 56.4062 31.125 56.4062ZM21.75 37.6562C23.0444 37.6562 24.0938 38.7056 24.0938 40C24.0938 41.2944 23.0444 42.3438 21.75 42.3438C20.4556 42.3438 19.4062 41.2944 19.4062 40C19.4062 38.7056 20.4556 37.6562 21.75 37.6562ZM21.75 47.0312C23.0444 47.0312 24.0938 48.0806 24.0938 49.375C24.0938 50.6694 23.0444 51.7188 21.75 51.7188C20.4556 51.7188 19.4062 50.6694 19.4062 49.375C19.4062 48.0806 20.4556 47.0312 21.75 47.0312ZM21.75 56.4062C23.0444 56.4062 24.0938 57.4556 24.0938 58.75C24.0938 60.0444 23.0444 61.0938 21.75 61.0938C20.4556 61.0938 19.4062 60.0444 19.4062 58.75C19.4062 57.4556 20.4556 56.4062 21.75 56.4062Z" fill="#246788"/>
</svg>
