<svg width="9" height="6" viewBox="0 0 9 6" fill="none" xmlns="http://www.w3.org/2000/svg">
<path d="M4.66076 5.84265C4.57851 5.84312 4.49697 5.82736 4.42082 5.79625C4.34467 5.76515 4.27541 5.71932 4.21701 5.6614L0.46701 1.9114C0.349321 1.79371 0.283203 1.63408 0.283203 1.46765C0.283203 1.30121 0.349321 1.14159 0.46701 1.0239C0.5847 0.906205 0.744322 0.840088 0.91076 0.840088C1.0772 0.840088 1.23682 0.906205 1.35451 1.0239L4.66076 4.3364L7.96701 1.03015C8.08657 0.927754 8.24037 0.87425 8.39767 0.880325C8.55497 0.886401 8.70418 0.951609 8.81549 1.06292C8.9268 1.17423 8.992 1.32344 8.99808 1.48074C9.00416 1.63803 8.95065 1.79183 8.84826 1.9114L5.09826 5.6614C4.98185 5.77686 4.82472 5.84196 4.66076 5.84265Z" fill="black"/>
</svg>
