<svg width="34" height="34" viewBox="0 0 34 34" fill="none" xmlns="http://www.w3.org/2000/svg">
<rect y="0.00518799" width="33.0696" height="33.0696" rx="5" fill="#EE9B24"/>
<path d="M26.9617 11.4393L19.9467 18.4543C19.1645 19.2345 18.1048 19.6727 17 19.6727C15.8952 19.6727 14.8355 19.2345 14.0533 18.4543L7.03833 11.4393C7.02667 11.571 7 11.6902 7 11.821V21.821C7.00132 22.9257 7.44073 23.9847 8.22185 24.7658C9.00296 25.5469 10.062 25.9863 11.1667 25.9877H22.8333C23.938 25.9863 24.997 25.5469 25.7782 24.7658C26.5593 23.9847 26.9987 22.9257 27 21.821V11.821C27 11.6902 26.9733 11.571 26.9617 11.4393Z" fill="white"/>
<path d="M18.7685 17.276L26.3801 9.66346C26.0114 9.05206 25.4913 8.54599 24.8701 8.19407C24.2489 7.84215 23.5474 7.65625 22.8335 7.6543H11.1668C10.4528 7.65625 9.75137 7.84215 9.13014 8.19407C8.50891 8.54599 7.98885 9.05206 7.62012 9.66346L15.2318 17.276C15.7014 17.7437 16.3373 18.0064 17.0001 18.0064C17.663 18.0064 18.2988 17.7437 18.7685 17.276Z" fill="white"/>
</svg>
