<svg width="23" height="24" viewBox="0 0 23 24" fill="none" xmlns="http://www.w3.org/2000/svg">
<path d="M11.5 14.8679C9.91219 14.8679 8.625 16.1551 8.625 17.7429V23.4929H14.375V17.7429C14.375 16.1551 13.0878 14.8679 11.5 14.8679Z" fill="white"/>
<path d="M16.2917 17.7428V23.4928H20.125C21.7128 23.4928 23 22.2057 23 20.6178V11.8769C23.0002 11.379 22.8067 10.9006 22.4604 10.5429L14.3166 1.73867C12.8796 0.183923 10.4544 0.0884638 8.89961 1.52542C8.82576 1.59371 8.7546 1.66482 8.68636 1.73867L0.556807 10.54C0.200037 10.8992 -0.000134698 11.385 6.8004e-08 11.8913V20.6178C6.8004e-08 22.2057 1.28719 23.4928 2.875 23.4928H6.70832V17.7428C6.72624 15.1297 8.83609 12.9957 11.3835 12.9342C14.0161 12.8707 16.2716 15.041 16.2917 17.7428Z" fill="white"/>
<path d="M11.5 14.8679C9.91219 14.8679 8.625 16.1551 8.625 17.7429V23.4929H14.375V17.7429C14.375 16.1551 13.0878 14.8679 11.5 14.8679Z" fill="white"/>
</svg>
