<svg width="23" height="23" viewBox="0 0 23 23" fill="none" xmlns="http://www.w3.org/2000/svg">
<path d="M11.5 14.3679C9.91219 14.3679 8.625 15.6551 8.625 17.2429V22.9929H14.375V17.2429C14.375 15.6551 13.0878 14.3679 11.5 14.3679Z" fill="black"/>
<path d="M16.2917 17.2428V22.9928H20.125C21.7128 22.9928 23 21.7057 23 20.1178V11.3769C23.0002 10.879 22.8067 10.4006 22.4604 10.0429L14.3166 1.23867C12.8796 -0.316077 10.4544 -0.411536 8.89961 1.02542C8.82576 1.09371 8.7546 1.16482 8.68636 1.23867L0.556807 10.04C0.200037 10.3992 -0.000134698 10.885 6.8004e-08 11.3913V20.1178C6.8004e-08 21.7057 1.28719 22.9928 2.875 22.9928H6.70832V17.2428C6.72624 14.6297 8.83609 12.4957 11.3835 12.4342C14.0161 12.3707 16.2716 14.541 16.2917 17.2428Z" fill="black"/>
<path d="M11.5 14.3679C9.91219 14.3679 8.625 15.6551 8.625 17.2429V22.9929H14.375V17.2429C14.375 15.6551 13.0878 14.3679 11.5 14.3679Z" fill="black"/>
</svg>
