<svg width="81" height="80" viewBox="0 0 81 80" fill="none" xmlns="http://www.w3.org/2000/svg">
<g clip-path="url(#clip0_609_1547)">
<path d="M73.1361 5H37.989C33.9216 5 30.6251 8.29712 30.6251 12.3639V29.6765C32.483 30.6 34.4905 31.5985 36.3643 32.5299L39.2311 26.7938C40.9669 23.3252 45.1985 21.9159 48.6659 23.6487C52.1406 25.3876 53.5487 29.6075 51.8092 33.0829L46.6987 43.3063C46.8342 44.6594 46.714 46.0236 46.3325 47.3438H49.7065L40.8076 71.814C40.2797 73.2654 41.3002 74.9591 43.011 74.9591C43.9674 74.9591 44.8671 74.3689 45.2125 73.4155L54.6937 47.3438H56.3362L65.9138 73.4235C66.2623 74.3719 67.1595 74.9591 68.1154 74.9591C69.7139 74.9591 70.8857 73.3624 70.3138 71.8079L61.3295 47.3438H73.1361C77.2029 47.3438 80.5 44.0466 80.5 39.9799V12.3639C80.5 8.29712 77.2029 5 73.1361 5ZM68.1141 37.3029H57.5984C56.3044 37.3029 55.2546 36.2531 55.2546 34.9591C55.2546 33.6639 56.3044 32.6154 57.5984 32.6154H68.1141C69.4093 32.6154 70.4579 33.6639 70.4579 34.9591C70.4579 36.2531 69.4093 37.3029 68.1141 37.3029ZM68.1141 28.5156H57.5984C56.3044 28.5156 55.2546 27.467 55.2546 26.1719C55.2546 24.8779 56.3044 23.8281 57.5984 23.8281H68.1141C69.4093 23.8281 70.4579 24.8779 70.4579 26.1719C70.4579 27.467 69.4093 28.5156 68.1141 28.5156ZM68.1141 19.7296H43.011C41.7158 19.7296 40.6672 18.6798 40.6672 17.3859C40.6672 16.0919 41.7158 15.0421 43.011 15.0421H68.1141C69.4093 15.0421 70.4579 16.0919 70.4579 17.3859C70.4579 18.6798 69.4093 19.7296 68.1141 19.7296Z" fill="#246788"/>
<path d="M41.7378 46.3385C42.1614 45.0977 42.1583 43.8013 41.8007 42.6184L47.6173 30.9863C48.1959 29.8285 47.7272 28.4204 46.5693 27.8418C45.4121 27.2626 44.004 27.7319 43.4248 28.8898L38.4639 38.8104C35.4988 37.334 30.9938 35.094 27.3646 33.2892C23.9882 31.6101 21.5785 30.1044 17.4672 30.1044H15.3962C18.5975 30.1044 21.4546 28.631 23.3247 26.3251C24.7517 24.5703 25.605 22.334 25.605 19.8969C25.605 14.2578 21.0347 9.6875 15.395 9.6875C9.75781 9.6875 5.1875 14.2578 5.1875 19.8969C5.1875 22.605 6.24219 25.0659 7.96277 26.8921C9.82312 28.8702 12.4653 30.1044 15.3944 30.105C11.4674 30.105 7.6283 31.6962 4.86645 34.4653C2.0509 37.2736 0.5 41.015 0.5 45.0006V52.5317C0.5 55.7739 2.6051 58.5327 5.52075 59.5142V72.6147C5.52075 73.9093 6.56995 74.9585 7.8645 74.9585H22.9268C24.2213 74.9585 25.2705 73.9093 25.2705 72.6147V46.2811C27.4928 47.392 30.4121 48.8513 32.7742 50.033C34.43 50.8606 36.3649 50.9351 38.0903 50.2332C39.8109 49.5251 41.1372 48.1158 41.7286 46.366C41.7317 46.3568 41.7347 46.3477 41.7378 46.3385Z" fill="#246788"/>
</g>
<defs>
<clipPath id="clip0_609_1547">
<rect width="80" height="80" fill="white" transform="translate(0.5)"/>
</clipPath>
</defs>
</svg>
