<svg width="53" height="72" viewBox="0 0 53 72" fill="none" xmlns="http://www.w3.org/2000/svg">
<path d="M16.2144 19.7483V28.0283C16.2093 31.0512 17.2208 33.9879 19.0864 36.3665C20.9519 38.7451 23.5631 40.4272 26.5001 41.1426C29.4286 40.4293 32.0333 38.7548 33.8979 36.3867C35.7626 34.0187 36.7794 31.0938 36.7858 28.0797V19.7483L26.5001 15.634L16.2144 19.7483ZM32.1829 23.8883C32.424 24.1273 32.6153 24.4118 32.7458 24.7251C32.8764 25.0385 32.9436 25.3746 32.9436 25.714C32.9436 26.0535 32.8764 26.3896 32.7458 26.7029C32.6153 27.0163 32.424 27.3007 32.1829 27.5397L27.0401 32.6826C26.801 32.9236 26.5166 33.1149 26.2033 33.2454C25.8899 33.376 25.5538 33.4432 25.2144 33.4432C24.8749 33.4432 24.5388 33.376 24.2255 33.2454C23.9121 33.1149 23.6277 32.9236 23.3887 32.6826L20.8172 30.1111C20.333 29.6269 20.061 28.9702 20.061 28.2854C20.061 27.6007 20.333 26.9439 20.8172 26.4597C21.3014 25.9755 21.9582 25.7035 22.6429 25.7035C23.3277 25.7035 23.9845 25.9755 24.4687 26.4597L25.2144 27.2312L28.5315 23.8883C28.7706 23.6473 29.055 23.456 29.3683 23.3254C29.6817 23.1949 30.0178 23.1277 30.3572 23.1277C30.6967 23.1277 31.0328 23.1949 31.3461 23.3254C31.6595 23.456 31.9439 23.6473 32.1829 23.8883Z" fill="#246788"/>
<path d="M52.2142 61.7144H5.9285C4.56453 61.7144 3.25643 62.2562 2.29195 63.2207C1.32748 64.1851 0.785645 65.4932 0.785645 66.8572C0.785645 68.2212 1.32748 69.5293 2.29195 70.4937C3.25643 71.4582 4.56453 72 5.9285 72H52.2142C50.8503 72 49.5421 71.4582 48.5777 70.4937C47.6132 69.5293 47.0714 68.2212 47.0714 66.8572C47.0714 65.4932 47.6132 64.1851 48.5777 63.2207C49.5421 62.2562 50.8503 61.7144 52.2142 61.7144Z" fill="#246788"/>
<path d="M49.6428 0H8.49993C6.45397 0 4.49182 0.812751 3.04511 2.25946C1.5984 3.70616 0.785645 5.66832 0.785645 7.71427V58.0113C2.33877 57.0765 4.11575 56.5789 5.9285 56.5713H52.2142V2.57142C52.2142 1.88944 51.9433 1.23539 51.4611 0.753152C50.9788 0.270917 50.3248 0 49.6428 0ZM41.9285 28.0285C41.9313 32.3253 40.4476 36.4908 37.7293 39.8185C35.0109 43.1461 31.2252 45.431 27.0142 46.2856H26.4999H25.9856C21.7747 45.431 17.9889 43.1461 15.2706 39.8185C12.5522 36.4908 11.0686 32.3253 11.0714 28.0285V18C11.0709 17.485 11.225 16.9817 11.5139 16.5553C11.8027 16.1289 12.2129 15.7991 12.6914 15.6085L25.5485 10.4657C26.1595 10.2224 26.8404 10.2224 27.4514 10.4657L40.3085 15.6085C40.787 15.7991 41.1972 16.1289 41.486 16.5553C41.7748 16.9817 41.929 17.485 41.9285 18V28.0285Z" fill="#246788"/>
</svg>
