<svg width="61" height="80" viewBox="0 0 61 80" fill="none" xmlns="http://www.w3.org/2000/svg">
<path d="M7.0625 80H53.9375C57.8147 80 60.9688 76.8459 60.9688 72.9688V23.4375H44.5625C40.6853 23.4375 37.5312 20.2834 37.5312 16.4062V0H7.0625C3.18531 0 0.03125 3.15406 0.03125 7.03125V72.9688C0.03125 76.8459 3.18531 80 7.0625 80ZM21.125 37.6562H44.5625C45.858 37.6562 46.9062 38.7045 46.9062 40C46.9062 41.2955 45.858 42.3438 44.5625 42.3438H21.125C19.8295 42.3438 18.7812 41.2955 18.7812 40C18.7812 38.7045 19.8295 37.6562 21.125 37.6562ZM21.125 47.0312H44.5625C45.858 47.0312 46.9062 48.0795 46.9062 49.375C46.9062 50.6705 45.858 51.7188 44.5625 51.7188H21.125C19.8295 51.7188 18.7812 50.6705 18.7812 49.375C18.7812 48.0795 19.8295 47.0312 21.125 47.0312ZM21.125 56.4062H44.5625C45.858 56.4062 46.9062 57.4545 46.9062 58.75C46.9062 60.0455 45.858 61.0938 44.5625 61.0938H21.125C19.8295 61.0938 18.7812 60.0455 18.7812 58.75C18.7812 57.4545 19.8295 56.4062 21.125 56.4062ZM11.75 37.6562C13.0444 37.6562 14.0938 38.7056 14.0938 40C14.0938 41.2944 13.0444 42.3438 11.75 42.3438C10.4556 42.3438 9.40625 41.2944 9.40625 40C9.40625 38.7056 10.4556 37.6562 11.75 37.6562ZM11.75 47.0312C13.0444 47.0312 14.0938 48.0806 14.0938 49.375C14.0938 50.6694 13.0444 51.7188 11.75 51.7188C10.4556 51.7188 9.40625 50.6694 9.40625 49.375C9.40625 48.0806 10.4556 47.0312 11.75 47.0312ZM11.75 56.4062C13.0444 56.4062 14.0938 57.4556 14.0938 58.75C14.0938 60.0444 13.0444 61.0938 11.75 61.0938C10.4556 61.0938 9.40625 60.0444 9.40625 58.75C9.40625 57.4556 10.4556 56.4062 11.75 56.4062Z" fill="#246788"/>
</svg>
