<svg width="25" height="25" viewBox="0 0 25 25" fill="none" xmlns="http://www.w3.org/2000/svg">
<g clip-path="url(#clip0_787_1139)">
<path d="M24.9822 24.0701V24.0691H24.9882V15.267C24.9882 10.961 24.0612 7.64404 19.0272 7.64404C16.6072 7.64404 14.9832 8.97204 14.3202 10.231H14.2502V8.04604H9.47723V24.0691H14.4472V16.135C14.4472 14.046 14.8432 12.026 17.4302 12.026C19.9792 12.026 20.0172 14.41 20.0172 16.269V24.0701H24.9822Z" fill="white"/>
<path d="M1.38422 8.04688H6.36022V24.0699H1.38422V8.04688Z" fill="white"/>
<path d="M3.87022 0.0698242C2.27922 0.0698242 0.98822 1.36082 0.98822 2.95182C0.98822 4.54282 2.27922 5.86082 3.87022 5.86082C5.46122 5.86082 6.75222 4.54282 6.75222 2.95182C6.75122 1.36082 5.46022 0.0698242 3.87022 0.0698242V0.0698242Z" fill="white"/>
</g>
<defs>
<clipPath id="clip0_787_1139">
<rect width="24" height="24" fill="white" transform="translate(0.98822 0.0698242)"/>
</clipPath>
</defs>
</svg>
