<svg width="39" height="39" viewBox="0 0 39 39" fill="none" xmlns="http://www.w3.org/2000/svg">
<rect x="0.504395" y="0.231445" width="38.1992" height="38.1992" rx="2" fill="#EE9B24"/>
<path fill-rule="evenodd" clip-rule="evenodd" d="M19.604 8.91406C23.6353 8.91406 26.8957 12.1745 26.8957 16.2057C26.8957 21.6745 19.604 29.7474 19.604 29.7474C19.604 29.7474 12.3124 21.6745 12.3124 16.2057C12.3124 12.1745 15.5728 8.91406 19.604 8.91406ZM14.3963 16.2066C14.3963 19.1754 17.438 23.717 19.6047 26.4983C21.813 23.6962 24.813 19.2066 24.813 16.2066C24.813 13.3316 22.4797 10.9983 19.6047 10.9983C16.7297 10.9983 14.3963 13.3316 14.3963 16.2066ZM19.6043 18.8104C18.166 18.8104 17.0001 17.6445 17.0001 16.2062C17.0001 14.768 18.166 13.6021 19.6043 13.6021C21.0425 13.6021 22.2084 14.768 22.2084 16.2062C22.2084 17.6445 21.0425 18.8104 19.6043 18.8104Z" fill="white"/>
</svg>
