<svg width="34" height="34" viewBox="0 0 34 34" fill="none" xmlns="http://www.w3.org/2000/svg">
<rect y="0.145203" width="33.0696" height="33.0696" rx="5" fill="#EE9B24"/>
<g clip-path="url(#clip0_533_1113)">
<path d="M17.0222 7.29291C13.523 7.29291 10.6045 10.1116 10.6045 13.7106C10.6045 15.0798 11.0159 16.3007 11.8055 17.4447L16.531 24.8184C16.7603 25.1769 17.2845 25.1762 17.5133 24.8184L22.2593 17.4196C23.0319 16.3274 23.4398 15.0449 23.4398 13.7106C23.4398 10.1719 20.5609 7.29291 17.0222 7.29291ZM17.0222 16.6277C15.4137 16.6277 14.105 15.319 14.105 13.7106C14.105 12.1021 15.4137 10.7935 17.0222 10.7935C18.6306 10.7935 19.9393 12.1021 19.9393 13.7106C19.9393 15.319 18.6306 16.6277 17.0222 16.6277Z" fill="white"/>
<path d="M21.5828 20.6998L18.6451 25.2928C17.8846 26.4784 16.1549 26.4745 15.3981 25.2939L12.4555 20.701C9.86652 21.2996 8.27051 22.3962 8.27051 23.7066C8.27051 25.9805 12.7795 27.2071 17.0219 27.2071C21.2642 27.2071 25.7732 25.9805 25.7732 23.7066C25.7732 22.3953 24.175 21.2981 21.5828 20.6998Z" fill="white"/>
</g>
<defs>
<clipPath id="clip0_533_1113">
<rect x="7.10156" y="6.45264" width="20" height="21.1111" rx="5" fill="white"/>
</clipPath>
</defs>
</svg>
