<svg width="24" height="25" viewBox="0 0 24 25" fill="none" xmlns="http://www.w3.org/2000/svg">
<g clip-path="url(#clip0_565_2393)">
<path d="M20.8535 5.22448L15.8535 0.224483C15.8071 0.178036 15.752 0.141192 15.6913 0.116058C15.6307 0.0909242 15.5657 0.0779927 15.5 0.0780029H5C4.46973 0.0785324 3.96133 0.289416 3.58637 0.664374C3.21141 1.03933 3.00053 1.54773 3 2.078V22.078C3.00053 22.6083 3.21141 23.1167 3.58637 23.4916C3.96133 23.8666 4.46973 24.0775 5 24.078H19C19.5303 24.0775 20.0387 23.8666 20.4136 23.4916C20.7886 23.1167 20.9995 22.6083 21 22.078V5.578C21 5.51234 20.9871 5.44732 20.9619 5.38666C20.9368 5.326 20.9 5.27089 20.8535 5.22448ZM16 1.785L19.293 5.078H17C16.7349 5.07766 16.4807 4.97219 16.2933 4.78473C16.1058 4.59727 16.0003 4.34311 16 4.078V1.785ZM19 23.078H5C4.73489 23.0777 4.48073 22.9722 4.29327 22.7847C4.10581 22.5973 4.00034 22.3431 4 22.078V2.078C4.00034 1.81289 4.10581 1.55874 4.29327 1.37128C4.48073 1.18381 4.73489 1.07835 5 1.078H15V4.078C15.0005 4.60827 15.2114 5.11667 15.5864 5.49163C15.9613 5.86659 16.4697 6.07747 17 6.078H20V22.078C19.9997 22.3431 19.8942 22.5973 19.7067 22.7847C19.5193 22.9722 19.2651 23.0777 19 23.078Z" fill="#4F4F4F"/>
<path d="M16 14.578C15.5132 14.6074 15.0287 14.667 14.5493 14.7562C14.1323 14.4343 13.7331 14.0899 13.3535 13.7245C12.9727 13.3436 12.6333 12.9745 12.3384 12.6229C12.6581 11.8035 12.8802 10.9494 13 10.078C13 8.41833 12.4004 8.078 11.5 8.078C10.8159 8.078 10 8.43347 10 10.1259C10.1101 11.1336 10.5368 12.0804 11.2188 12.8304C11.0205 13.4354 10.7876 14.1332 10.5259 14.9198C10.3999 15.2972 10.2632 15.6469 10.1187 15.9701C10.001 16.0223 9.88672 16.0756 9.77637 16.1307C9.37891 16.3295 9.00146 16.5082 8.65137 16.6742C7.05469 17.43 6 17.93 6 18.9174C6 19.6342 6.77881 20.078 7.5 20.078C8.42969 20.078 9.8335 18.8363 10.8589 16.7445C11.973 16.3341 13.1216 16.0243 14.291 15.8187C14.9239 16.3985 15.6787 16.8288 16.5 17.078C17.7397 17.078 18 16.3612 18 15.7601C18 14.578 16.6494 14.578 16 14.578ZM7.5 19.078C7.31989 19.083 7.14348 19.0264 7 18.9174C7 18.5629 8.05713 18.0619 9.07959 17.5775C9.14453 17.5468 9.21045 17.516 9.27734 17.4843C8.52637 18.5731 7.78369 19.078 7.5 19.078ZM11 10.1259C11 9.078 11.3252 9.078 11.5 9.078C11.8535 9.078 12 9.078 12 10.078C11.9201 10.6106 11.7868 11.1337 11.602 11.6395C11.2688 11.1983 11.0608 10.6754 11 10.1259ZM11.3833 15.4999C11.4146 15.4129 11.4448 15.3251 11.4741 15.2362C11.6597 14.6795 11.8267 14.1795 11.9756 13.7294C12.1831 13.9579 12.4067 14.1919 12.6465 14.4315C12.7402 14.5253 12.9727 14.7362 13.2822 15.0003C12.666 15.1346 12.0103 15.3011 11.3833 15.4999ZM16.5361 16.0809C16.2363 15.9587 15.954 15.7975 15.6963 15.6014C15.8374 15.5858 15.9414 15.578 16 15.578C16.7388 15.578 16.9482 15.6503 17 15.7601C17 15.9847 17 16.078 16.5361 16.0809Z" fill="#4F4F4F"/>
</g>
<defs>
<clipPath id="clip0_565_2393">
<rect width="24" height="24" fill="white" transform="translate(0 0.0780029)"/>
</clipPath>
</defs>
</svg>
