<svg width="39" height="39" viewBox="0 0 39 39" fill="none" xmlns="http://www.w3.org/2000/svg">
<rect x="0.504395" y="0.530273" width="38.1992" height="38.1992" rx="2" fill="#EE9B24"/>
<path fill-rule="evenodd" clip-rule="evenodd" d="M16.312 13.5111C16.3478 14.2335 16.437 14.9397 16.5799 15.6134L15.8656 16.5874C15.6216 15.6134 15.4668 14.5826 15.4132 13.5111H16.312ZM22.181 23.268C22.687 23.4628 23.2049 23.5846 23.7287 23.6333V24.8427C22.943 24.7697 22.187 24.5586 21.4668 24.234L22.181 23.268ZM16.8839 11.8882H14.8006C14.4732 11.8882 14.2053 12.2534 14.2053 12.6999C14.2053 20.3216 18.7351 26.4986 24.3244 26.4986C24.6518 26.4986 24.9196 26.1333 24.9196 25.6869V22.8541C24.9196 22.4077 24.6518 22.0424 24.3244 22.0424C23.5863 22.0424 22.866 21.8801 22.1994 21.5797C22.1398 21.5473 22.0744 21.5392 22.0148 21.5392C21.8601 21.5392 21.7113 21.6203 21.5922 21.7745L20.2827 23.5603C18.5982 22.3833 17.2172 20.5083 16.3601 18.2112L17.6696 16.4255C17.8363 16.1982 17.8839 15.8817 17.8184 15.5976C17.5982 14.6885 17.4791 13.7145 17.4791 12.6999C17.4791 12.2534 17.2113 11.8882 16.8839 11.8882Z" fill="white"/>
</svg>
