<svg width="16" height="16" viewBox="0 0 16 16" fill="none" xmlns="http://www.w3.org/2000/svg">
<path d="M7.66076 10.6533C7.57851 10.6538 7.49697 10.638 7.42082 10.6069C7.34467 10.5758 7.27541 10.53 7.21701 10.4721L3.46701 6.72206C3.34932 6.60437 3.2832 6.44475 3.2832 6.27831C3.2832 6.11188 3.34932 5.95225 3.46701 5.83456C3.5847 5.71687 3.74432 5.65076 3.91076 5.65076C4.0772 5.65076 4.23682 5.71687 4.35451 5.83456L7.66076 9.14706L10.967 5.84081C11.0866 5.73842 11.2404 5.68492 11.3977 5.69099C11.555 5.69707 11.7042 5.76228 11.8155 5.87359C11.9268 5.9849 11.992 6.13411 11.9981 6.29141C12.0042 6.4487 11.9507 6.6025 11.8483 6.72206L8.09826 10.4721C7.98185 10.5875 7.82472 10.6526 7.66076 10.6533Z" fill="white"/>
</svg>
