<svg width="25" height="26" viewBox="0 0 25 26" fill="none" xmlns="http://www.w3.org/2000/svg">
<path d="M14.7232 1.3534C14.6091 1.25703 14.4589 1.22019 14.3155 1.25342L1.81551 4.25342C1.59551 4.30601 1.44029 4.51067 1.4424 4.74542V21.7454C1.44249 21.9921 1.61562 22.202 1.85008 22.2395L14.3501 24.2395C14.6125 24.2814 14.858 24.0942 14.8983 23.8213C14.902 23.7962 14.9039 23.7709 14.9039 23.7455V1.74542C14.9044 1.59294 14.8378 1.44861 14.7232 1.3534Z" fill="black"/>
<path d="M24.0386 22.2453H14.4232C14.1576 22.2453 13.9424 22.0215 13.9424 21.7453C13.9424 21.4692 14.1576 21.2453 14.4232 21.2453H23.5578V4.24535H14.4232C14.1576 4.24535 13.9424 4.02147 13.9424 3.74533C13.9424 3.46919 14.1576 3.24536 14.4232 3.24536H24.0385C24.3041 3.24536 24.5193 3.46924 24.5193 3.74538V21.7454C24.5193 22.0215 24.3041 22.2453 24.0386 22.2453Z" fill="black"/>
<path d="M9.61535 16.2551C9.40113 16.2549 9.21295 16.1073 9.15381 15.8931L7.69226 10.5751L6.23071 15.8931C6.12515 16.1585 5.83272 16.2846 5.57752 16.1749C5.45484 16.1221 5.35739 16.0207 5.30664 15.8931L3.38359 8.89315C3.30309 8.62999 3.443 8.34884 3.69603 8.26512C3.94907 8.1814 4.21941 8.3269 4.29991 8.59005C4.30275 8.59934 4.30532 8.60871 4.30766 8.61813L5.76917 13.9351L7.23072 8.61715C7.33628 8.35179 7.62871 8.22565 7.88391 8.33543C8.00659 8.38821 8.10404 8.48956 8.15479 8.61715L9.61535 13.9352L11.0769 8.61818C11.1461 8.35502 11.4073 8.20001 11.6604 8.27196C11.664 8.27299 11.6675 8.27407 11.6711 8.27515C11.9262 8.35118 12.0739 8.62779 12.0009 8.89315L10.0778 15.8931C10.0186 16.1076 9.8299 16.2553 9.61535 16.2551Z" fill="#FAFAFA"/>
<path d="M22.1155 7.24149H14.4232C14.1576 7.24149 13.9424 7.01761 13.9424 6.74147C13.9424 6.46533 14.1576 6.24146 14.4232 6.24146H22.1155C22.381 6.24146 22.5963 6.46533 22.5963 6.74147C22.5963 7.01766 22.381 7.24149 22.1155 7.24149Z" fill="black"/>
<path d="M22.1155 10.2415H14.4232C14.1576 10.2415 13.9424 10.0176 13.9424 9.74147C13.9424 9.46533 14.1576 9.24146 14.4232 9.24146H22.1155C22.381 9.24146 22.5963 9.46533 22.5963 9.74147C22.5963 10.0176 22.381 10.2415 22.1155 10.2415Z" fill="black"/>
<path d="M22.1155 13.2415H14.4232C14.1576 13.2415 13.9424 13.0176 13.9424 12.7415C13.9424 12.4653 14.1576 12.2415 14.4232 12.2415H22.1155C22.381 12.2415 22.5963 12.4653 22.5963 12.7415C22.5963 13.0177 22.381 13.2415 22.1155 13.2415Z" fill="black"/>
<path d="M22.1155 16.2415H14.4232C14.1576 16.2415 13.9424 16.0176 13.9424 15.7415C13.9424 15.4653 14.1576 15.2415 14.4232 15.2415H22.1155C22.381 15.2415 22.5963 15.4653 22.5963 15.7415C22.5963 16.0177 22.381 16.2415 22.1155 16.2415Z" fill="black"/>
<path d="M22.1155 19.2415H14.4232C14.1576 19.2415 13.9424 19.0176 13.9424 18.7415C13.9424 18.4653 14.1576 18.2415 14.4232 18.2415H22.1155C22.381 18.2415 22.5963 18.4653 22.5963 18.7415C22.5963 19.0177 22.381 19.2415 22.1155 19.2415Z" fill="black"/>
</svg>
